<svg width="18" height="22" viewBox="0 0 18 22" fill="none" xmlns="http://www.w3.org/2000/svg">
<path d="M9.71 16.29C9.66081 16.2448 9.60721 16.2046 9.55 16.17C9.49895 16.1304 9.44143 16.1 9.38 16.08C9.32045 16.0496 9.25623 16.0293 9.19 16.02C8.99842 15.9795 8.79895 16.0005 8.62 16.08C8.4959 16.1249 8.3832 16.1966 8.28989 16.2899C8.19657 16.3832 8.12491 16.4959 8.08 16.62C8.02402 16.7387 7.99662 16.8688 8 17C7.99841 17.13 8.02218 17.2591 8.07 17.38C8.12798 17.4995 8.202 17.6105 8.29 17.71C8.38344 17.8027 8.49426 17.876 8.61609 17.9258C8.73793 17.9755 8.86839 18.0008 9 18C9.13118 18.0034 9.26132 17.976 9.38 17.92C9.50119 17.8694 9.6128 17.7983 9.71 17.71C9.80268 17.6166 9.87601 17.5057 9.92577 17.3839C9.97554 17.2621 10.0008 17.1316 10 17C9.99842 16.8693 9.97124 16.7402 9.92 16.62C9.87241 16.4972 9.80104 16.3851 9.71 16.29ZM5.55 12.17C5.49895 12.1304 5.44143 12.1 5.38 12.08C5.32176 12.0426 5.25747 12.0155 5.19 12C5.06172 11.9701 4.92828 11.9701 4.8 12L4.62 12.06L4.44 12.15L4.29 12.27C4.10253 12.4667 3.99858 12.7283 4 13C3.99924 13.1316 4.02446 13.2621 4.07423 13.3839C4.12399 13.5057 4.19732 13.6166 4.29 13.71C4.3872 13.7983 4.49882 13.8694 4.62 13.92C4.7715 13.9822 4.93597 14.0063 5.09895 13.9901C5.26193 13.9739 5.41843 13.9179 5.55471 13.8271C5.69099 13.7362 5.80287 13.6133 5.88051 13.4691C5.95815 13.3249 5.99918 13.1638 6 13C5.99632 12.7352 5.89273 12.4816 5.71 12.29L5.55 12.17ZM5.71 16.29C5.6149 16.199 5.50275 16.1276 5.38 16.08C5.19898 15.9961 4.99698 15.9682 4.8 16L4.62 16.06C4.55628 16.0819 4.49575 16.1122 4.44 16.15C4.38761 16.1869 4.33752 16.227 4.29 16.27C4.19896 16.3651 4.12759 16.4772 4.08 16.6C4.02709 16.7197 3.99977 16.8491 3.99977 16.98C3.99977 17.1109 4.02709 17.2403 4.08 17.36C4.13064 17.4812 4.20167 17.5928 4.29 17.69C4.38178 17.7863 4.49185 17.8633 4.61376 17.9165C4.73567 17.9698 4.86698 17.9981 5 18C5.13118 18.0034 5.26132 17.976 5.38 17.92C5.50118 17.8694 5.6128 17.7983 5.71 17.71C5.79833 17.6128 5.86936 17.5012 5.92 17.38C5.97291 17.2603 6.00023 17.1309 6.00023 17C6.00023 16.8691 5.97291 16.7397 5.92 16.62C5.87241 16.4972 5.80104 16.3851 5.71 16.29ZM8.62 12.08C8.49725 12.1276 8.3851 12.199 8.29 12.29C8.10727 12.4816 8.00368 12.7352 8 13C8.00082 13.1638 8.04185 13.3249 8.11949 13.4691C8.19713 13.6133 8.30901 13.7362 8.44529 13.8271C8.58156 13.9179 8.73807 13.9739 8.90105 13.9901C9.06404 14.0063 9.2285 13.9822 9.38 13.92C9.50119 13.8694 9.6128 13.7983 9.71 13.71C9.80268 13.6166 9.87601 13.5057 9.92577 13.3839C9.97554 13.2621 10.0008 13.1316 10 13C9.99632 12.7352 9.89273 12.4816 9.71 12.29C9.56938 12.1512 9.3908 12.0572 9.19681 12.0199C9.00282 11.9825 8.80211 12.0034 8.62 12.08ZM13.71 16.29C13.6128 16.2017 13.5012 16.1306 13.38 16.08C13.1979 16.0034 12.9972 15.9825 12.8032 16.0199C12.6092 16.0572 12.4306 16.1512 12.29 16.29C12.199 16.3851 12.1276 16.4972 12.08 16.62C12.0271 16.7397 11.9998 16.8691 11.9998 17C11.9998 17.1309 12.0271 17.2603 12.08 17.38C12.1306 17.5012 12.2017 17.6128 12.29 17.71C12.3834 17.8027 12.4943 17.876 12.6161 17.9258C12.7379 17.9755 12.8684 18.0008 13 18C13.1312 18.0034 13.2613 17.976 13.38 17.92C13.5012 17.8694 13.6128 17.7983 13.71 17.71C13.8488 17.5694 13.9428 17.3908 13.9801 17.1968C14.0175 17.0028 13.9966 16.8021 13.92 16.62C13.8724 16.4972 13.801 16.3851 13.71 16.29ZM13 4H5C4.73478 4 4.48043 4.10536 4.29289 4.29289C4.10536 4.48043 4 4.73478 4 5V9C4 9.26522 4.10536 9.51957 4.29289 9.70711C4.48043 9.89464 4.73478 10 5 10H13C13.2652 10 13.5196 9.89464 13.7071 9.70711C13.8946 9.51957 14 9.26522 14 9V5C14 4.73478 13.8946 4.48043 13.7071 4.29289C13.5196 4.10536 13.2652 4 13 4ZM12 8H6V6H12V8ZM15 0H3C2.20435 0 1.44129 0.31607 0.87868 0.87868C0.316071 1.44129 0 2.20435 0 3V19C0 19.7956 0.316071 20.5587 0.87868 21.1213C1.44129 21.6839 2.20435 22 3 22H15C15.7956 22 16.5587 21.6839 17.1213 21.1213C17.6839 20.5587 18 19.7956 18 19V3C18 2.20435 17.6839 1.44129 17.1213 0.87868C16.5587 0.31607 15.7956 0 15 0ZM16 19C16 19.2652 15.8946 19.5196 15.7071 19.7071C15.5196 19.8946 15.2652 20 15 20H3C2.73478 20 2.48043 19.8946 2.29289 19.7071C2.10536 19.5196 2 19.2652 2 19V3C2 2.73478 2.10536 2.48043 2.29289 2.29289C2.48043 2.10536 2.73478 2 3 2H15C15.2652 2 15.5196 2.10536 15.7071 2.29289C15.8946 2.48043 16 2.73478 16 3V19ZM13.55 12.17C13.4989 12.1304 13.4414 12.1 13.38 12.08C13.3205 12.0496 13.2562 12.0293 13.19 12.02C13.0617 11.9901 12.9283 11.9901 12.8 12.02L12.62 12.08L12.44 12.17L12.29 12.29C12.1073 12.4816 12.0037 12.7352 12 13C12.0008 13.1638 12.0418 13.3249 12.1195 13.4691C12.1971 13.6133 12.309 13.7362 12.4453 13.8271C12.5816 13.9179 12.7381 13.9739 12.9011 13.9901C13.064 14.0063 13.2285 13.9822 13.38 13.92C13.5012 13.8694 13.6128 13.7983 13.71 13.71C13.8027 13.6166 13.876 13.5057 13.9258 13.3839C13.9755 13.2621 14.0008 13.1316 14 13C13.9963 12.7352 13.8927 12.4816 13.71 12.29L13.55 12.17Z" fill="black"/>
</svg>
